# xmcd CD database file
#
# Track frame offsets:
#	150
#	16318
#	34150
#	48820
#	63645
#	76120
#	97073
#	108478
#	122043
#	135908
#	149610
#	171215
#
# Disc length: 2460 seconds
#
# Revision: 8
# Processed by: cddbd v1.5.2PL0 Copyright (c) Steve Scherf et al.
# Submitted via: CDex 1.51
#
DISCID=9f099a0c
DTITLE=noon - better than anything
DYEAR=2003
DGENRE=Jazz
TTITLE0=Moonglow
TTITLE1=Moon River
TTITLE2=One Note Samba
TTITLE3=Better Than Anything
TTITLE4=Call Me
TTITLE5=(They Long To Be) Close To You
TTITLE6=Bluesette
TTITLE7=Danke Schoen
TTITLE8=Nothing But A Fool
TTITLE9=It Had To Be You
TTITLE10=I'll Never Fall In Love Again
TTITLE11=Getting Some Fun Out Of Life
EXTD=YEAR: 2003
EXTT0=
EXTT1=
EXTT2=
EXTT3=
EXTT4=
EXTT5=
EXTT6=
EXTT7=
EXTT8=
EXTT9=
EXTT10=
EXTT11=
PLAYORDER=
